<svg width="169" height="50" viewBox="0 0 169 50" fill="none" xmlns="http://www.w3.org/2000/svg">
<path d="M167.636 44.0959C167.636 46.7429 165.49 48.8835 162.849 48.8835H162.843H5.91502C3.26796 48.8889 1.11655 46.7484 1.1111 44.0959V5.90961C1.11655 3.26255 3.26252 1.11658 5.91502 1.11658H162.838C165.485 1.11658 167.631 3.26255 167.631 5.90961L167.636 44.0959Z" fill="white"/>
<path d="M162.843 50H5.91503C2.65251 50 0.00544662 47.3584 0 44.0959V5.90959C0.00544662 2.64706 2.65251 0.00544662 5.91503 0H162.838C166.1 0.00544662 168.747 2.64706 168.753 5.90959V44.1013C168.758 47.3529 166.1 50 162.843 50Z" fill="#A6A5A5"/>
<path d="M167.636 44.0959C167.636 46.7429 165.49 48.8835 162.849 48.8835H162.843H5.91502C3.26796 48.8889 1.11655 46.7484 1.1111 44.0959V5.90961C1.11655 3.26255 3.26252 1.11658 5.91502 1.11658H162.838C165.485 1.11658 167.631 3.26255 167.631 5.90961L167.636 44.0959Z" fill="#010101"/>
<path opacity="0.1" d="M162.843 0H78.7854L111.71 50H162.843C166.106 49.9946 168.753 47.3529 168.758 44.0959V5.90959C168.747 2.64706 166.106 0.00544662 162.843 0Z" fill="white"/>
<path d="M59.6296 15.1144C59.6296 16.0948 59.3845 16.9499 58.7745 17.5599C58.0392 18.2952 57.1841 18.6601 56.0839 18.6601C54.9837 18.6601 54.1285 18.2952 53.3932 17.5599C52.658 16.8246 52.293 15.9695 52.293 14.8693C52.293 13.7691 52.658 12.9139 53.3932 12.1786C54.1285 11.4434 54.9837 11.0784 56.0839 11.0784C56.5741 11.0784 57.0643 11.1983 57.549 11.4434C58.0392 11.6885 58.4041 11.9335 58.6492 12.2985L58.0392 12.9085C57.549 12.2985 56.939 12.0534 56.0839 12.0534C55.3486 12.0534 54.6187 12.2985 54.1285 12.9085C53.5185 13.3987 53.2734 14.1285 53.2734 14.9837C53.2734 15.8388 53.5185 16.5741 54.1285 17.0588C54.7386 17.549 55.3486 17.9139 56.0839 17.9139C56.939 17.9139 57.549 17.6688 58.159 17.0588C58.524 16.6939 58.7691 16.2037 58.7691 15.5937H56.0784V14.6133H59.6242L59.6296 15.1144ZM65.2505 12.0588H61.9499V14.3791H65.0054V15.2342H61.9499V17.5545H65.2505V18.5349H60.9749V11.2037H65.2505V12.0588ZM69.2865 18.5403H68.3061V12.0588H66.2309V11.2037H71.3617V12.0588H69.2865V18.5403ZM74.9074 18.5403V11.2037H75.8878V18.5349H74.9074V18.5403ZM80.0436 18.5403H79.0632V12.0588H76.988V11.2037H81.9989V12.0588H79.9237V18.5349H80.0436V18.5403ZM91.6503 17.5599C90.915 18.2952 90.0599 18.6601 88.9597 18.6601C87.8595 18.6601 87.0044 18.2952 86.2691 17.5599C85.5338 16.8246 85.1688 15.9695 85.1688 14.8693C85.1688 13.7691 85.5338 12.9139 86.2691 12.1786C87.0044 11.4434 87.8595 11.0784 88.9597 11.0784C90.0599 11.0784 90.915 11.4434 91.6503 12.1786C92.3856 12.9139 92.7505 13.7691 92.7505 14.8693C92.7505 15.9695 92.3856 16.8246 91.6503 17.5599ZM87.0098 16.9499C87.5 17.4401 88.2298 17.805 88.9651 17.805C89.7004 17.805 90.4303 17.5599 90.9205 16.9499C91.4107 16.4597 91.7756 15.7298 91.7756 14.8747C91.7756 14.0196 91.5305 13.2843 90.9205 12.7996C90.4303 12.3094 89.7004 11.9444 88.9651 11.9444C88.2298 11.9444 87.5 12.1895 87.0098 12.7996C86.5196 13.2898 86.1547 14.0196 86.1547 14.8747C86.1547 15.7298 86.3943 16.4597 87.0098 16.9499ZM94.0959 18.5403V11.2037H95.1961L98.7418 16.9499V11.2037H99.7222V18.5349H98.7418L94.951 12.5436V18.5349H94.0959V18.5403Z" fill="white"/>
<path d="M84.9292 27.7015C81.9935 27.7015 79.6732 29.9019 79.6732 32.9575C79.6732 35.8932 81.9935 38.2135 84.9292 38.2135C87.8649 38.2135 90.1852 36.013 90.1852 32.9575C90.1852 29.7821 87.8649 27.7015 84.9292 27.7015ZM84.9292 36.013C83.3388 36.013 81.9935 34.6677 81.9935 32.8377C81.9935 31.0021 83.3388 29.6623 84.9292 29.6623C86.5196 29.6623 87.8649 30.8823 87.8649 32.8377C87.8649 34.6677 86.5196 36.013 84.9292 36.013ZM73.5621 27.7015C70.6264 27.7015 68.3061 29.9019 68.3061 32.9575C68.3061 35.8932 70.6264 38.2135 73.5621 38.2135C76.4978 38.2135 78.8181 36.013 78.8181 32.9575C78.8181 29.7821 76.4978 27.7015 73.5621 27.7015ZM73.5621 36.013C71.9717 36.013 70.6264 34.6677 70.6264 32.8377C70.6264 31.0021 71.9717 29.6623 73.5621 29.6623C75.1525 29.6623 76.4978 30.8823 76.4978 32.8377C76.4978 34.6677 75.1525 36.013 73.5621 36.013ZM59.9946 29.2919V31.4923H65.2506C65.1307 32.7124 64.6405 33.6928 64.0305 34.3028C63.2952 35.0381 62.0752 35.8932 59.9946 35.8932C56.6939 35.8932 54.2484 33.3279 54.2484 30.0272C54.2484 26.7266 56.8137 24.1612 59.9946 24.1612C61.7048 24.1612 63.0501 24.8965 64.0305 25.7516L65.6209 24.1612C64.2756 22.9411 62.5654 21.9608 60.1198 21.9608C55.719 21.9608 51.9336 25.6263 51.9336 30.0272C51.9336 34.4281 55.7244 38.0937 60.1198 38.0937C62.5654 38.0937 64.2756 37.3584 65.7408 35.7734C67.2059 34.3082 67.6961 32.2276 67.6961 30.6427C67.6961 30.1525 67.6961 29.6623 67.5763 29.2974L59.9946 29.2919ZM115.485 31.0021C114.995 29.7821 113.775 27.7015 111.084 27.7015C108.393 27.7015 106.193 29.7767 106.193 32.9575C106.193 35.8932 108.393 38.2135 111.324 38.2135C113.644 38.2135 115.114 36.7483 115.599 35.8932L113.889 34.6732C113.279 35.5283 112.544 36.1383 111.324 36.1383C110.103 36.1383 109.368 35.6481 108.758 34.5479L115.724 31.6122L115.485 31.0021ZM108.399 32.7124C108.399 30.7571 109.989 29.6568 111.089 29.6568C111.944 29.6568 112.8 30.147 113.045 30.7571L108.399 32.7124ZM102.653 37.7233H104.973V22.4455H102.653V37.7233ZM98.9869 28.8017C98.3769 28.1917 97.3965 27.5817 96.1765 27.5817C93.6111 27.5817 91.1656 29.9019 91.1656 32.8377C91.1656 35.7734 93.4858 37.9684 96.1765 37.9684C97.3965 37.9684 98.3769 37.3584 98.8671 36.7483H98.9869V37.4836C98.9869 39.439 97.8867 40.5392 96.1765 40.5392C94.8312 40.5392 93.8562 39.5588 93.6111 38.7037L91.6558 39.5588C92.2658 40.9041 93.7309 42.6143 96.3018 42.6143C98.9924 42.6143 101.193 41.0239 101.193 37.2385V27.9466H98.9924L98.9869 28.8017ZM96.2963 36.013C94.7059 36.013 93.3606 34.6677 93.3606 32.8377C93.3606 31.0076 94.7059 29.6623 96.2963 29.6623C97.8867 29.6623 99.1068 31.0076 99.1068 32.8377C99.1068 34.6677 97.8867 36.013 96.2963 36.013ZM126.122 22.4455H120.621V37.7233H122.941V31.9825H126.117C128.682 31.9825 131.127 30.147 131.127 27.2167C131.127 24.2865 128.687 22.4455 126.122 22.4455ZM126.242 29.7821H122.941V24.5261H126.242C127.952 24.5261 128.932 25.9913 128.932 27.0915C128.807 28.4368 127.832 29.7821 126.242 29.7821ZM140.3 27.5817C138.589 27.5817 136.879 28.317 136.264 29.9019L138.339 30.7571C138.829 29.9019 139.559 29.6568 140.414 29.6568C141.634 29.6568 142.734 30.3921 142.859 31.6122V31.732C142.495 31.4869 141.514 31.122 140.539 31.122C138.339 31.122 136.138 32.342 136.138 34.5425C136.138 36.6176 137.974 37.9629 139.929 37.9629C141.52 37.9629 142.249 37.2276 142.865 36.4978H142.985V37.7178H145.185V31.8573C144.94 29.1721 142.865 27.5817 140.3 27.5817ZM140.054 36.013C139.319 36.013 138.219 35.6481 138.219 34.6677C138.219 33.4477 139.564 33.0773 140.664 33.0773C141.645 33.0773 142.13 33.3224 142.74 33.5675C142.5 35.0381 141.275 36.013 140.054 36.013ZM152.887 27.9466L150.321 34.5479H150.202L147.511 27.9466H145.065L149.101 37.2331L146.781 42.3638H149.101L155.332 27.9411H152.887V27.9466ZM132.353 37.7233H134.673V22.4455H132.353V37.7233Z" fill="white"/>
<path d="M18.1645 10.147C17.7996 10.512 17.6743 11.1274 17.6743 11.8573V38.8671C17.6743 39.6024 17.9194 40.2124 18.2843 40.5773L18.4042 40.6971L33.5621 25.5446V25.2995L18.1645 10.147Z" fill="url(#paint0_linear)"/>
<path d="M38.4532 30.6808L33.4423 25.6699V25.305L38.4532 20.2941L38.573 20.414L44.5643 23.8344C46.2746 24.8148 46.2746 26.3998 44.5643 27.3802L38.4532 30.6808Z" fill="url(#paint1_linear)"/>
<path d="M38.573 30.5555L33.4423 25.4248L18.1645 40.7026C18.7745 41.3126 19.6296 41.3126 20.7299 40.8224L38.573 30.5555Z" fill="url(#paint2_linear)"/>
<path d="M38.573 20.2887L20.7299 10.147C19.6296 9.53702 18.7745 9.65685 18.1645 10.2669L33.4423 25.4248L38.573 20.2887Z" fill="url(#paint3_linear)"/>
<defs>
<linearGradient id="paint0_linear" x1="25.6176" y1="10.058" x2="25.6176" y2="40.4749" gradientUnits="userSpaceOnUse">
<stop stop-color="#267CAF"/>
<stop offset="0.286" stop-color="#4A92B4"/>
<stop offset="0.767" stop-color="#79BCBA"/>
<stop offset="1" stop-color="#88CEBC"/>
</linearGradient>
<linearGradient id="paint1_linear" x1="41.3487" y1="21.7532" x2="37.6393" y2="30.1436" gradientUnits="userSpaceOnUse">
<stop stop-color="#F48879"/>
<stop offset="0.119" stop-color="#F5907A"/>
<stop offset="0.713" stop-color="#FBB777"/>
<stop offset="1" stop-color="#FDC874"/>
</linearGradient>
<linearGradient id="paint2_linear" x1="35.8319" y1="28.1323" x2="19.141" y2="41.6301" gradientUnits="userSpaceOnUse">
<stop stop-color="#EB413D"/>
<stop offset="0.167" stop-color="#D94452"/>
<stop offset="0.575" stop-color="#AF487A"/>
<stop offset="0.862" stop-color="#954B92"/>
<stop offset="1" stop-color="#894A9C"/>
</linearGradient>
<linearGradient id="paint3_linear" x1="20.3257" y1="10.8832" x2="36.2909" y2="23.0748" gradientUnits="userSpaceOnUse">
<stop stop-color="#54C0AC"/>
<stop offset="1" stop-color="#DDE79A"/>
</linearGradient>
</defs>
</svg>
