<svg width="169" height="50" viewBox="0 0 169 50" fill="none" xmlns="http://www.w3.org/2000/svg">
<path d="M167.636 44.0959C167.636 46.7429 165.49 48.8835 162.849 48.8835H162.843H5.91502C3.26796 48.8889 1.11655 46.7484 1.1111 44.0959V5.90961C1.11655 3.26255 3.26252 1.11658 5.91502 1.11658H162.838C165.485 1.11658 167.631 3.26255 167.631 5.90961L167.636 44.0959Z" fill="white"/>
<path d="M162.843 50H5.91503C2.65251 50 0.00544662 47.3584 0 44.0959V5.90959C0.00544662 2.64706 2.65251 0.00544662 5.91503 0H162.838C166.1 0.00544662 168.747 2.64706 168.753 5.90959V44.1013C168.758 47.3529 166.1 50 162.843 50Z" fill="#A6A5A5"/>
<path d="M167.636 44.0959C167.636 46.7429 165.49 48.8835 162.849 48.8835H162.843H5.91502C3.26796 48.8889 1.11655 46.7484 1.1111 44.0959V5.90961C1.11655 3.26255 3.26252 1.11658 5.91502 1.11658H162.838C165.485 1.11658 167.631 3.26255 167.631 5.90961L167.636 44.0959Z" fill="#010101"/>
<path opacity="0.1" d="M162.843 0H78.7854L111.71 50H162.843C166.106 49.9946 168.753 47.3529 168.758 44.0959V5.90959C168.747 2.64706 166.106 0.00544662 162.843 0Z" fill="white"/>
<path d="M38.8834 25.452C38.8453 21.5087 42.1133 19.5915 42.2603 19.5043C40.4139 16.8083 37.549 16.4433 36.5414 16.4107C34.134 16.1601 31.8028 17.8486 30.5773 17.8486C29.3246 17.8486 27.4401 16.4324 25.403 16.476C22.7832 16.5141 20.3377 18.0337 18.9924 20.3867C16.22 25.1852 18.2897 32.2331 20.9422 36.1111C22.2712 38.012 23.8235 40.1307 25.8551 40.0544C27.8431 39.9727 28.5839 38.7908 30.9858 38.7908C33.3605 38.7908 34.0577 40.0544 36.1329 40.0109C38.268 39.9782 39.6078 38.1045 40.8932 36.1873C42.4292 34.0141 43.0446 31.8682 43.0719 31.7592C43.0174 31.7374 38.927 30.1743 38.8834 25.452ZM34.9727 13.8616C36.0403 12.5272 36.7756 10.708 36.5686 8.86163C35.0218 8.93244 33.0882 9.92917 31.9717 11.2364C30.9858 12.391 30.1035 14.2756 30.3322 16.0512C32.0697 16.1819 33.8562 15.1743 34.9727 13.8616Z" fill="white"/>
<path d="M67.6743 38.3715H64.8965L63.3769 33.5893H58.0882L56.6394 38.3715H53.9324L59.1721 22.097H62.4074L67.6743 38.3715ZM62.9194 31.585L61.5414 27.3366C61.3943 26.9009 61.122 25.8824 60.7189 24.2702H60.6699C60.5065 24.9619 60.2505 25.9859 59.8965 27.3366L58.5457 31.585H62.9194ZM81.1274 32.3584C81.1274 34.3519 80.5882 35.9314 79.4989 37.0915C78.5294 38.1209 77.3203 38.6384 75.8823 38.6384C74.3301 38.6384 73.2081 38.0828 72.5327 36.9717V43.1264H69.9237V30.4902C69.9237 29.2375 69.8911 27.9521 69.8257 26.634H72.1187L72.2658 28.4967H72.3148C73.1863 27.097 74.5043 26.3944 76.2745 26.3944C77.6579 26.3944 78.8126 26.939 79.7386 28.0338C80.6645 29.1286 81.1274 30.5719 81.1274 32.3584ZM78.4695 32.451C78.4695 31.3072 78.2135 30.3649 77.6961 29.6242C77.1296 28.8508 76.3725 28.4641 75.4248 28.4641C74.7821 28.4641 74.1993 28.6819 73.6765 29.1013C73.1536 29.5316 72.8104 30.0872 72.6525 30.7789C72.5817 31.0403 72.5381 31.3018 72.5327 31.5741V33.5294C72.5327 34.3791 72.7941 35.1035 73.317 35.6917C73.8399 36.28 74.5207 36.5741 75.3595 36.5741C76.3399 36.5741 77.1078 36.1928 77.6525 35.4412C78.1972 34.6896 78.4695 33.6928 78.4695 32.451ZM94.6296 32.3584C94.6296 34.3519 94.0904 35.9314 93.0011 37.0915C92.0261 38.1209 90.8224 38.6384 89.3791 38.6384C87.8268 38.6384 86.7048 38.0828 86.0294 36.9717V43.1264H83.4205V30.4902C83.4205 29.2375 83.3878 27.9521 83.3224 26.634H85.6155L85.7625 28.4967H85.8115C86.6776 27.097 88.0011 26.3944 89.7712 26.3944C91.1547 26.3944 92.3094 26.939 93.2353 28.0338C94.1667 29.1286 94.6296 30.5719 94.6296 32.3584ZM91.9717 32.451C91.9717 31.3072 91.7157 30.3649 91.1982 29.6242C90.6318 28.8508 89.8802 28.4641 88.9325 28.4641C88.2898 28.4641 87.707 28.6819 87.1786 29.1013C86.6558 29.5316 86.3126 30.0872 86.1547 30.7789C86.073 31.1002 86.0349 31.3671 86.0349 31.5741V33.5294C86.0349 34.3791 86.2963 35.1035 86.8192 35.6917C87.342 36.28 88.0229 36.5741 88.8616 36.5741C89.8475 36.5741 90.61 36.1928 91.1547 35.4412C91.6993 34.6896 91.9717 33.6928 91.9717 32.451ZM109.722 33.8018C109.722 35.1852 109.237 36.3126 108.273 37.1841C107.217 38.1318 105.735 38.6111 103.84 38.6111C102.086 38.6111 100.686 38.2734 99.6242 37.5981L100.229 35.4249C101.373 36.1002 102.631 36.4379 103.998 36.4379C104.984 36.4379 105.746 36.2146 106.291 35.7734C106.836 35.3323 107.113 34.7386 107.113 33.9978C107.113 33.3388 106.885 32.7832 106.438 32.3312C105.986 31.8791 105.24 31.4597 104.194 31.0784C101.345 30.0164 99.9183 28.4641 99.9183 26.4161C99.9183 25.0817 100.425 23.9869 101.427 23.1318C102.435 22.2767 103.764 21.8519 105.425 21.8519C106.906 21.8519 108.143 22.1079 109.118 22.6253L108.464 24.7495C107.544 24.2484 106.503 24.0033 105.338 24.0033C104.417 24.0033 103.698 24.232 103.181 24.6787C102.745 25.0817 102.527 25.5719 102.527 26.1547C102.527 26.7974 102.778 27.3312 103.279 27.7506C103.715 28.1373 104.504 28.5567 105.643 29.0033C107.042 29.5697 108.072 30.2288 108.736 30.9804C109.395 31.7375 109.722 32.6798 109.722 33.8018ZM118.366 28.5893H115.49V34.2865C115.49 35.7353 115.997 36.4597 117.01 36.4597C117.478 36.4597 117.865 36.4216 118.17 36.3399L118.241 38.3225C117.729 38.5131 117.048 38.6111 116.215 38.6111C115.185 38.6111 114.379 38.2952 113.796 37.6689C113.219 37.0425 112.925 35.9859 112.925 34.5044V28.5839H111.215V26.6286H112.925V24.4826L115.485 23.7092V26.6286H118.361L118.366 28.5893ZM131.313 32.4074C131.313 34.2103 130.795 35.6917 129.766 36.8519C128.687 38.0447 127.255 38.6384 125.468 38.6384C123.742 38.6384 122.375 38.0665 121.351 36.9281C120.327 35.7843 119.815 34.3464 119.815 32.6089C119.815 30.7898 120.343 29.3028 121.394 28.1427C122.451 26.9826 123.873 26.4052 125.659 26.4052C127.38 26.4052 128.764 26.9771 129.809 28.1209C130.817 29.2157 131.313 30.6482 131.313 32.4074ZM128.611 32.4673C128.611 31.3944 128.377 30.4684 127.914 29.7004C127.369 28.7691 126.585 28.3007 125.572 28.3007C124.526 28.3007 123.725 28.7691 123.181 29.7004C122.712 30.4739 122.484 31.4107 122.484 32.5164C122.484 33.5948 122.718 34.5153 123.181 35.2887C123.747 36.2201 124.532 36.6885 125.55 36.6885C126.547 36.6885 127.331 36.2146 127.892 35.2669C128.366 34.4717 128.611 33.5403 128.611 32.4673ZM139.793 28.927C139.521 28.878 139.248 28.8562 138.971 28.8562C138.056 28.8562 137.342 29.1994 136.846 29.8965C136.411 30.5065 136.198 31.28 136.198 32.2113V38.366H133.589V30.3323C133.589 29.1013 133.568 27.8704 133.513 26.6394H135.784L135.882 28.8835H135.953C136.231 28.11 136.661 27.4891 137.255 27.0207C137.8 26.6122 138.459 26.3944 139.139 26.3944C139.379 26.3944 139.597 26.4107 139.793 26.4434V28.927ZM151.454 31.9445C151.46 32.3421 151.427 32.7342 151.356 33.1264H143.535C143.562 34.2865 143.943 35.1743 144.668 35.7843C145.327 36.329 146.182 36.6013 147.228 36.6013C148.388 36.6013 149.444 36.4161 150.392 36.0458L150.801 37.854C149.69 38.3388 148.377 38.5784 146.868 38.5784C145.049 38.5784 143.622 38.0447 142.582 36.9717C141.547 35.9042 141.024 34.4662 141.024 32.6634C141.024 30.8933 141.509 29.4227 142.473 28.2462C143.486 26.9935 144.853 26.3617 146.574 26.3617C148.268 26.3617 149.548 26.988 150.414 28.2462C151.111 29.2484 151.454 30.4848 151.454 31.9445ZM148.971 31.2691C148.987 30.4957 148.818 29.8312 148.464 29.2647C148.012 28.5403 147.32 28.1754 146.389 28.1754C145.534 28.1754 144.842 28.5294 144.314 29.2375C143.878 29.8039 143.622 30.4793 143.54 31.2636L148.971 31.2691Z" fill="white"/>
<path d="M57.3366 17.756C56.6122 17.756 55.9859 17.7179 55.463 17.6579V9.79302C56.1928 9.67864 56.9336 9.62417 57.6689 9.62417C60.6591 9.62417 62.0371 11.0948 62.0371 13.4913C62.0371 16.2582 60.4085 17.756 57.3366 17.756ZM57.7723 10.6318C57.3693 10.6318 57.0262 10.6536 56.7375 10.7135V16.6939C56.89 16.7157 57.1896 16.732 57.6035 16.732C59.5643 16.732 60.6808 15.6155 60.6808 13.5294C60.6808 11.6667 59.6732 10.6318 57.7723 10.6318ZM66.329 17.8159C64.646 17.8159 63.5512 16.5577 63.5512 14.8475C63.5512 13.0664 64.6678 11.7974 66.427 11.7974C68.0883 11.7974 69.2048 12.9956 69.2048 14.7549C69.1994 16.5577 68.0501 17.8159 66.329 17.8159ZM66.378 12.7342C65.4521 12.7342 64.8584 13.6002 64.8584 14.8094C64.8584 15.9967 65.463 16.8627 66.3671 16.8627C67.2713 16.8627 67.8758 15.9368 67.8758 14.7876C67.8704 13.6111 67.2767 12.7342 66.378 12.7342ZM78.8127 11.9172L77.0098 17.6852H75.8334L75.0872 15.1797C74.902 14.5697 74.744 13.9433 74.6242 13.317H74.6024C74.5098 13.9433 74.3301 14.5752 74.1395 15.1797L73.3442 17.6852H72.1569L70.4575 11.9172H71.7756L72.4292 14.6569C72.5817 15.3104 72.7124 15.9259 72.8214 16.5087H72.8432C72.9358 16.024 73.0937 15.4139 73.317 14.6677L74.134 11.9172H75.1798L75.9641 14.6133C76.1547 15.2669 76.3072 15.9096 76.427 16.5141H76.4597C76.5414 15.9205 76.6721 15.2887 76.8519 14.6133L77.5545 11.9172H78.8127ZM85.4575 17.6852H84.1776V14.3736C84.1776 13.3551 83.7854 12.8431 83.012 12.8431C82.2549 12.8431 81.732 13.4967 81.732 14.2538V17.6852H80.4521V13.5621C80.4521 13.0501 80.4412 12.5054 80.4031 11.9118H81.5305L81.5904 12.7996H81.6286C81.9717 12.1841 82.6743 11.7919 83.4586 11.7919C84.6678 11.7919 85.463 12.7179 85.463 14.2266L85.4575 17.6852ZM88.9924 17.6852H87.707V9.27014H88.9924V17.6852ZM93.6656 17.8159C91.9826 17.8159 90.8878 16.5577 90.8878 14.8475C90.8878 13.0664 92.0044 11.7974 93.7582 11.7974C95.4194 11.7974 96.536 12.9956 96.536 14.7549C96.536 16.5577 95.3867 17.8159 93.6656 17.8159ZM93.7146 12.7342C92.7887 12.7342 92.195 13.6002 92.195 14.8094C92.195 15.9967 92.7996 16.8627 93.6983 16.8627C94.6024 16.8627 95.207 15.9368 95.207 14.7876C95.207 13.6111 94.6133 12.7342 93.7146 12.7342ZM101.59 17.6852L101.498 17.0207H101.465C101.073 17.5545 100.501 17.8159 99.7767 17.8159C98.7419 17.8159 98.0066 17.0915 98.0066 16.1165C98.0066 14.695 99.243 13.9542 101.378 13.9542V13.8453C101.378 13.0882 100.975 12.707 100.18 12.707C99.6133 12.707 99.1122 12.8486 98.6711 13.1372L98.4096 12.293C98.9434 11.9608 99.6079 11.7919 100.392 11.7919C101.901 11.7919 102.658 12.5871 102.658 14.1775V16.3017C102.658 16.8845 102.685 17.3366 102.74 17.6797L101.59 17.6852ZM101.416 14.8094C99.9946 14.8094 99.2756 15.1525 99.2756 15.9749C99.2756 16.5795 99.646 16.8736 100.153 16.8736C100.806 16.8736 101.411 16.378 101.411 15.6972V14.8094H101.416ZM108.889 17.6852L108.829 16.7592H108.791C108.421 17.4564 107.805 17.8159 106.939 17.8159C105.55 17.8159 104.521 16.5904 104.521 14.8747C104.521 13.0719 105.588 11.8028 107.048 11.8028C107.821 11.8028 108.366 12.0643 108.676 12.5871H108.704V9.27559H109.989V16.1329C109.989 16.6884 110 17.2113 110.038 17.6852H108.889ZM108.698 14.2919C108.698 13.4858 108.165 12.7941 107.348 12.7941C106.394 12.7941 105.817 13.6383 105.817 14.8202C105.817 15.9858 106.422 16.781 107.32 16.781C108.126 16.781 108.698 16.0784 108.698 15.2505V14.2919ZM118.115 17.8159C116.432 17.8159 115.338 16.5577 115.338 14.8475C115.338 13.0664 116.454 11.7974 118.208 11.7974C119.869 11.7974 120.986 12.9956 120.986 14.7549C120.991 16.5577 119.842 17.8159 118.115 17.8159ZM118.165 12.7342C117.239 12.7342 116.645 13.6002 116.645 14.8094C116.645 15.9967 117.249 16.8627 118.148 16.8627C119.052 16.8627 119.657 15.9368 119.657 14.7876C119.662 13.6111 119.069 12.7342 118.165 12.7342ZM127.887 17.6852H126.601V14.3736C126.601 13.3551 126.209 12.8431 125.436 12.8431C124.679 12.8431 124.156 13.4967 124.156 14.2538V17.6852H122.87V13.5621C122.87 13.0501 122.86 12.5054 122.821 11.9118H123.949L124.009 12.7996H124.047C124.39 12.1841 125.093 11.7919 125.877 11.7919C127.086 11.7919 127.887 12.7179 127.887 14.2266V17.6852ZM136.509 12.8758H135.098V15.6754C135.098 16.3889 135.343 16.7429 135.844 16.7429C136.073 16.7429 136.258 16.7211 136.411 16.683L136.449 17.6579C136.198 17.756 135.866 17.7996 135.452 17.7996C134.439 17.7996 133.84 17.244 133.84 15.7843V12.8758H132.996V11.9172H133.84V10.8606L135.098 10.4793V11.9172H136.509V12.8758ZM143.295 17.6852H142.015V14.3954C142.015 13.366 141.623 12.8431 140.85 12.8431C140.185 12.8431 139.564 13.2952 139.564 14.2102V17.6852H138.284V9.27014H139.564V12.7342H139.592C139.995 12.1078 140.577 11.7974 141.324 11.7974C142.544 11.7974 143.29 12.7451 143.29 14.2538L143.295 17.6852ZM150.251 15.1089H146.405C146.427 16.1982 147.151 16.8192 148.224 16.8192C148.791 16.8192 149.319 16.7211 149.777 16.5468L149.978 17.4346C149.434 17.6743 148.791 17.7887 148.045 17.7887C146.242 17.7887 145.174 16.6503 145.174 14.8802C145.174 13.11 146.269 11.781 147.903 11.781C149.379 11.781 150.3 12.8758 150.3 14.5207C150.3 14.7222 150.289 14.9183 150.251 15.1089ZM149.074 14.1939C149.074 13.3061 148.627 12.6743 147.805 12.6743C147.07 12.6743 146.487 13.317 146.405 14.1939H149.074Z" fill="white"/>
</svg>
